<?xml version="1.0" encoding="UTF-8"?>
<svg width="71px" height="72px" viewBox="0 0 71 72" version="1.1" xmlns="http://www.w3.org/2000/svg" xmlns:xlink="http://www.w3.org/1999/xlink">
    <!-- Generator: Sketch 52.6 (67491) - http://www.bohemiancoding.com/sketch -->
    <title>auricular-phone-symbol-in-a-circle</title>
    <desc>Created with Sketch.</desc>
    <g id="Page-1" stroke="none" stroke-width="1" fill="none" fill-rule="evenodd">
        <g id="Homepage" transform="translate(-309.000000, -9994.000000)" fill="#FFFFFF" fill-rule="nonzero">
            <g id="Footer-1" transform="translate(2.000000, 9547.500000)">
                <g id="Group-16" transform="translate(307.000000, 332.000000)">
                    <g id="Group-7" transform="translate(0.000000, 114.000000)">
                        <g id="auricular-phone-symbol-in-a-circle" transform="translate(0.000000, 1.000000)">
                            <path d="M35.5,4.4375 C52.6259766,4.4375 66.5625,18.3740234 66.5625,35.5 C66.5625,52.6259766 52.6259766,66.5625 35.5,66.5625 C18.3740234,66.5625 4.4375,52.6259766 4.4375,35.5 C4.4375,18.3740234 18.3740234,4.4375 35.5,4.4375 Z M35.5,0 C15.8952637,0 0,15.8952637 0,35.5 C0,55.1047363 15.8952637,71 35.5,71 C55.1047363,71 71,55.1047363 71,35.5 C71,15.8952637 55.1047363,0 35.5,0 Z M55.2911113,47.3694805 L55.0917012,46.762791 C54.6236836,45.3674746 53.080959,43.9114199 51.6595723,43.5213359 L46.4118125,42.0869141 C44.9904258,41.7012676 42.9623496,42.2212871 41.9181504,43.265625 L40.0200098,45.1637656 C33.121084,43.2959941 27.708582,37.8834922 25.8451094,30.9845664 L27.74325,29.0864258 C28.7832891,28.0463867 29.3033086,26.0183105 28.9176621,24.592625 L27.4874004,19.3447266 C27.1017539,17.9233398 25.6369629,16.3806152 24.2416465,15.9125977 L23.6435547,15.7131875 C22.2438008,15.2451699 20.2460937,15.7174863 19.2060547,16.7619629 L16.3632813,19.6047363 C15.8562969,20.1074219 15.53125,21.5504414 15.53125,21.5548789 C15.4358438,30.5772871 18.9721152,39.2659121 25.3510215,45.6491172 C31.7125937,52.0106895 40.3709883,55.5426621 49.3628887,55.4644512 C49.4105918,55.4644512 50.8970156,55.1481406 51.404,54.6410176 L54.2467734,51.7982441 C55.2868125,50.7625039 55.7546914,48.7647969 55.2911113,47.3694805 Z" id="Shape"></path>
                        </g>
                    </g>
                </g>
            </g>
        </g>
    </g>
</svg>